<?xml version="1.0" encoding="UTF-8"?>
<svg xmlns="http://www.w3.org/2000/svg" xmlns:xlink="http://www.w3.org/1999/xlink" width="567pt" height="407pt" viewBox="0 0 567 407" version="1.1">
<defs>
<filter id="alpha" filterUnits="objectBoundingBox" x="0%" y="0%" width="100%" height="100%">
  <feColorMatrix type="matrix" in="SourceGraphic" values="0 0 0 0 1 0 0 0 0 1 0 0 0 0 1 0 0 0 1 0"/>
</filter>
<mask id="mask0">
  <g filter="url(#alpha)">
<rect x="0" y="0" width="567" height="407" style="fill:rgb(0%,0%,0%);fill-opacity:0.701961;stroke:none;"/>
  </g>
</mask>
<linearGradient id="linear0" gradientUnits="userSpaceOnUse" x1="277.46" y1="697.11" x2="277.46" y2="669.52" gradientTransform="matrix(0.499559,0,0,0.5,0,0)">
<stop offset="0" style="stop-color:rgb(50.196078%,50.196078%,50.196078%);stop-opacity:0.25098;"/>
<stop offset="0.54" style="stop-color:rgb(50.196078%,50.196078%,50.196078%);stop-opacity:0.121569;"/>
<stop offset="1" style="stop-color:rgb(50.196078%,50.196078%,50.196078%);stop-opacity:0.101961;"/>
</linearGradient>
<clipPath id="clip1">
  <rect x="0" y="0" width="567" height="407"/>
</clipPath>
<g id="surface5" clip-path="url(#clip1)">
<path style=" stroke:none;fill-rule:nonzero;fill:url(#linear0);" d="M 145.5 341.65625 C 145.5 345.464844 142.414062 348.554688 138.609375 348.554688 C 134.800781 348.554688 131.714844 345.464844 131.714844 341.65625 C 131.714844 337.84375 134.800781 334.753906 138.609375 334.753906 C 142.414062 334.753906 145.5 337.84375 145.5 341.65625 Z M 145.5 341.65625 "/>
</g>
<mask id="mask1">
  <g filter="url(#alpha)">
<rect x="0" y="0" width="567" height="407" style="fill:rgb(0%,0%,0%);fill-opacity:0.2;stroke:none;"/>
  </g>
</mask>
<clipPath id="clip2">
  <rect x="0" y="0" width="567" height="407"/>
</clipPath>
<g id="surface8" clip-path="url(#clip2)">
<path style=" stroke:none;fill-rule:nonzero;fill:rgb(0%,0%,0%);fill-opacity:1;" d="M 145.191406 341.65625 C 145.191406 345.292969 142.242188 348.246094 138.609375 348.246094 C 134.972656 348.246094 132.023438 345.292969 132.023438 341.65625 C 132.023438 338.015625 134.972656 335.066406 138.609375 335.066406 C 142.242188 335.066406 145.191406 338.015625 145.191406 341.65625 Z M 145.191406 341.65625 "/>
</g>
<mask id="mask2">
  <g filter="url(#alpha)">
<rect x="0" y="0" width="567" height="407" style="fill:rgb(0%,0%,0%);fill-opacity:0.701961;stroke:none;"/>
  </g>
</mask>
<linearGradient id="linear1" gradientUnits="userSpaceOnUse" x1="748.15" y1="567.16" x2="748.15" y2="544.13" gradientTransform="matrix(0.499559,0,0,0.5,0,0)">
<stop offset="0" style="stop-color:rgb(50.196078%,50.196078%,50.196078%);stop-opacity:0.25098;"/>
<stop offset="0.54" style="stop-color:rgb(50.196078%,50.196078%,50.196078%);stop-opacity:0.121569;"/>
<stop offset="1" style="stop-color:rgb(50.196078%,50.196078%,50.196078%);stop-opacity:0.101961;"/>
</linearGradient>
<clipPath id="clip3">
  <rect x="0" y="0" width="567" height="407"/>
</clipPath>
<g id="surface11" clip-path="url(#clip3)">
<path style=" stroke:none;fill-rule:nonzero;fill:url(#linear1);" d="M 379.5 277.824219 C 379.5 281.007812 376.921875 283.585938 373.746094 283.585938 C 370.566406 283.585938 367.992188 281.007812 367.992188 277.824219 C 367.992188 274.644531 370.566406 272.066406 373.746094 272.066406 C 376.921875 272.066406 379.5 274.644531 379.5 277.824219 Z M 379.5 277.824219 "/>
</g>
<mask id="mask3">
  <g filter="url(#alpha)">
<rect x="0" y="0" width="567" height="407" style="fill:rgb(0%,0%,0%);fill-opacity:0.2;stroke:none;"/>
  </g>
</mask>
<clipPath id="clip4">
  <rect x="0" y="0" width="567" height="407"/>
</clipPath>
<g id="surface14" clip-path="url(#clip4)">
<path style=" stroke:none;fill-rule:nonzero;fill:rgb(0%,0%,0%);fill-opacity:1;" d="M 379.074219 277.824219 C 379.074219 280.769531 376.6875 283.160156 373.746094 283.160156 C 370.800781 283.160156 368.414062 280.769531 368.414062 277.824219 C 368.414062 274.878906 370.800781 272.488281 373.746094 272.488281 C 376.6875 272.488281 379.074219 274.878906 379.074219 277.824219 Z M 379.074219 277.824219 "/>
</g>
<mask id="mask4">
  <g filter="url(#alpha)">
<rect x="0" y="0" width="567" height="407" style="fill:rgb(0%,0%,0%);fill-opacity:0.2;stroke:none;"/>
  </g>
</mask>
<clipPath id="clip5">
  <rect x="0" y="0" width="567" height="407"/>
</clipPath>
<g id="surface17" clip-path="url(#clip5)">
<path style=" stroke:none;fill-rule:nonzero;fill:rgb(0%,0%,0%);fill-opacity:1;" d="M 394.058594 315.378906 C 394.058594 318.675781 391.390625 321.34375 388.097656 321.34375 C 384.804688 321.34375 382.136719 318.675781 382.136719 315.378906 C 382.136719 312.085938 384.804688 309.414062 388.097656 309.414062 C 391.390625 309.414062 394.058594 312.085938 394.058594 315.378906 Z M 394.058594 315.378906 "/>
</g>
<mask id="mask5">
  <g filter="url(#alpha)">
<rect x="0" y="0" width="567" height="407" style="fill:rgb(0%,0%,0%);fill-opacity:0.701961;stroke:none;"/>
  </g>
</mask>
<linearGradient id="linear2" gradientUnits="userSpaceOnUse" x1="556.93" y1="707.16" x2="556.93" y2="42.89" gradientTransform="matrix(0.499559,0,0,0.5,-16.190722,-21.445)">
<stop offset="0" style="stop-color:rgb(50.196078%,50.196078%,50.196078%);stop-opacity:0.25098;"/>
<stop offset="0.54" style="stop-color:rgb(50.196078%,50.196078%,50.196078%);stop-opacity:0.121569;"/>
<stop offset="1" style="stop-color:rgb(50.196078%,50.196078%,50.196078%);stop-opacity:0.101961;"/>
</linearGradient>
<clipPath id="clip6">
  <rect x="0" y="0" width="567" height="407"/>
</clipPath>
<g id="surface20" clip-path="url(#clip6)">
<path style=" stroke:none;fill-rule:nonzero;fill:url(#linear2);" d="M 334.691406 153.515625 C 334.730469 140.984375 331.730469 128.628906 325.949219 117.515625 C 323.203125 112.296875 320.703125 109.054688 318.773438 107.058594 C 317.261719 105.464844 314.902344 105.007812 312.910156 105.929688 C 312.132812 106.207031 311.429688 106.660156 310.855469 107.253906 C 308.253906 109.953125 305.898438 113.523438 303.863281 117.320312 C 297.78125 128.699219 294.628906 141.414062 294.683594 154.320312 L 294.683594 162.058594 L 289.722656 162.058594 L 289.722656 72.054688 C 289.722656 53.195312 285.507812 34.589844 277.234375 18.089844 C 273.320312 10.269531 269.742188 5.410156 267 2.425781 C 265.652344 0.886719 263.710938 0.0078125 261.667969 0.0078125 C 259.625 0.0078125 257.679688 0.886719 256.332031 2.425781 C 252.617188 6.46875 249.261719 11.820312 246.34375 17.503906 C 237.65625 34.363281 233.246094 53.503906 233.246094 72.914062 L 233.246094 162.023438 L 228.957031 162.023438 L 228.957031 153.910156 C 229.011719 141.015625 225.859375 128.308594 219.78125 116.933594 C 217.726562 113.140625 215.375 109.570312 212.789062 106.871094 C 211.246094 105.230469 208.8125 104.789062 206.792969 105.78125 L 206.972656 105.875 C 206.34375 106.15625 205.777344 106.550781 205.300781 107.046875 C 203.375 109.046875 200.871094 112.28125 198.128906 117.5 C 192.347656 128.613281 189.347656 140.96875 189.386719 153.5 L 189.386719 288 L 204.695312 288 L 203.007812 299.054688 L 203.007812 332.121094 L 215.523438 332.121094 L 215.523438 299.054688 L 213.851562 287.996094 L 228.9375 287.996094 L 228.9375 165.496094 L 233.222656 165.496094 L 233.222656 287.464844 L 245.449219 287.464844 L 243.695312 299.054688 L 243.695312 332.121094 L 256.214844 332.121094 L 256.214844 299.054688 L 254.460938 287.449219 L 270.945312 287.449219 L 269.183594 299.054688 L 269.183594 332.121094 L 281.703125 332.121094 L 281.703125 299.054688 L 279.949219 287.449219 L 289.710938 287.449219 L 289.710938 165.511719 L 294.671875 165.511719 L 294.671875 288.195312 L 298.691406 288.195312 L 298.691406 288.011719 L 311.988281 288.011719 L 310.320312 299.054688 L 310.320312 332.121094 L 322.839844 332.121094 L 322.839844 299.054688 L 321.167969 287.996094 L 334.691406 287.996094 Z M 334.691406 153.515625 "/>
</g>
<mask id="mask6">
  <g filter="url(#alpha)">
<rect x="0" y="0" width="567" height="407" style="fill:rgb(0%,0%,0%);fill-opacity:0.101961;stroke:none;"/>
  </g>
</mask>
<clipPath id="clip7">
  <rect x="0" y="0" width="567" height="407"/>
</clipPath>
<g id="surface23" clip-path="url(#clip7)">
<path style=" stroke:none;fill-rule:nonzero;fill:rgb(0%,0%,0%);fill-opacity:1;" d="M 207.683594 283.941406 L 216.480469 283.941406 L 215.890625 279.914062 L 208.269531 279.914062 Z M 207.683594 283.941406 "/>
</g>
<mask id="mask7">
  <g filter="url(#alpha)">
<rect x="0" y="0" width="567" height="407" style="fill:rgb(0%,0%,0%);fill-opacity:0.101961;stroke:none;"/>
  </g>
</mask>
<clipPath id="clip8">
  <rect x="0" y="0" width="567" height="407"/>
</clipPath>
<g id="surface26" clip-path="url(#clip8)">
<path style=" stroke:none;fill-rule:nonzero;fill:rgb(0%,0%,0%);fill-opacity:1;" d="M 309.265625 283.941406 L 318.070312 283.941406 L 317.480469 279.914062 L 309.855469 279.914062 Z M 309.265625 283.941406 "/>
</g>
<mask id="mask8">
  <g filter="url(#alpha)">
<rect x="0" y="0" width="567" height="407" style="fill:rgb(0%,0%,0%);fill-opacity:0.101961;stroke:none;"/>
  </g>
</mask>
<clipPath id="clip9">
  <rect x="0" y="0" width="567" height="407"/>
</clipPath>
<g id="surface29" clip-path="url(#clip9)">
<path style=" stroke:none;fill-rule:nonzero;fill:rgb(0%,0%,0%);fill-opacity:1;" d="M 246.199219 283.941406 L 255 283.941406 L 254.410156 279.914062 L 246.789062 279.914062 Z M 246.199219 283.941406 "/>
</g>
<mask id="mask9">
  <g filter="url(#alpha)">
<rect x="0" y="0" width="567" height="407" style="fill:rgb(0%,0%,0%);fill-opacity:0.101961;stroke:none;"/>
  </g>
</mask>
<clipPath id="clip10">
  <rect x="0" y="0" width="567" height="407"/>
</clipPath>
<g id="surface32" clip-path="url(#clip10)">
<path style=" stroke:none;fill-rule:nonzero;fill:rgb(0%,0%,0%);fill-opacity:1;" d="M 270.328125 283.941406 L 279.128906 283.941406 L 278.535156 279.914062 L 270.917969 279.914062 Z M 270.328125 283.941406 "/>
</g>
<mask id="mask10">
  <g filter="url(#alpha)">
<rect x="0" y="0" width="567" height="407" style="fill:rgb(0%,0%,0%);fill-opacity:0.101961;stroke:none;"/>
  </g>
</mask>
<clipPath id="clip11">
  <rect x="0" y="0" width="567" height="407"/>
</clipPath>
<g id="surface35" clip-path="url(#clip11)">
<path style=" stroke:none;fill-rule:nonzero;fill:rgb(0%,0%,0%);fill-opacity:1;" d="M 222.019531 115.265625 C 220.070312 111.570312 217.847656 108.09375 215.378906 105.464844 C 213.949219 103.875 211.632812 103.441406 209.71875 104.398438 C 210.253906 104.667969 210.738281 105.027344 211.148438 105.464844 C 213.613281 108.09375 215.839844 111.570312 217.78125 115.265625 C 223.546875 126.382812 226.527344 138.738281 226.46875 151.265625 L 226.46875 281.675781 L 230.707031 281.675781 L 230.707031 151.269531 C 230.761719 138.742188 227.78125 126.386719 222.019531 115.265625 Z M 222.019531 115.265625 "/>
</g>
<mask id="mask11">
  <g filter="url(#alpha)">
<rect x="0" y="0" width="567" height="407" style="fill:rgb(0%,0%,0%);fill-opacity:0.101961;stroke:none;"/>
  </g>
</mask>
<clipPath id="clip12">
  <rect x="0" y="0" width="567" height="407"/>
</clipPath>
<g id="surface38" clip-path="url(#clip12)">
<path style=" stroke:none;fill-rule:nonzero;fill:rgb(0%,0%,0%);fill-opacity:1;" d="M 305.425781 115.625 C 307.367188 111.929688 309.597656 108.453125 312.058594 105.824219 C 312.519531 105.328125 313.078125 104.929688 313.699219 104.65625 C 311.820312 103.832031 309.628906 104.304688 308.253906 105.824219 C 305.785156 108.453125 303.558594 111.929688 301.613281 115.625 C 295.851562 126.746094 292.871094 139.097656 292.925781 151.625 L 292.925781 282.054688 L 296.738281 282.054688 L 296.738281 151.636719 C 296.679688 139.105469 299.660156 126.746094 305.425781 115.625 Z M 305.425781 115.625 "/>
</g>
<linearGradient id="linear3" gradientUnits="userSpaceOnUse" x1="456.95" y1="628.14" x2="456.95" y2="692.54" gradientTransform="matrix(0.499559,0,0,0.5,-16.190722,-21.445)">
<stop offset="0" style="stop-color:rgb(87.843137%,87.843137%,87.843137%);stop-opacity:1;"/>
<stop offset="0.31" style="stop-color:rgb(98.823529%,80%,38.823529%);stop-opacity:1;"/>
<stop offset="0.77" style="stop-color:rgb(96.078431%,37.254902%,26.666667%);stop-opacity:1;"/>
</linearGradient>
<linearGradient id="linear4" gradientUnits="userSpaceOnUse" x1="534.05" y1="628.14" x2="534.05" y2="692.54" gradientTransform="matrix(0.499559,0,0,0.5,-16.190722,-21.445)">
<stop offset="0" style="stop-color:rgb(87.843137%,87.843137%,87.843137%);stop-opacity:1;"/>
<stop offset="0.31" style="stop-color:rgb(98.823529%,80%,38.823529%);stop-opacity:1;"/>
<stop offset="0.77" style="stop-color:rgb(96.078431%,37.254902%,26.666667%);stop-opacity:1;"/>
</linearGradient>
<linearGradient id="linear5" gradientUnits="userSpaceOnUse" x1="582.35" y1="628.14" x2="582.35" y2="692.54" gradientTransform="matrix(0.499559,0,0,0.5,-16.190722,-21.445)">
<stop offset="0" style="stop-color:rgb(87.843137%,87.843137%,87.843137%);stop-opacity:1;"/>
<stop offset="0.31" style="stop-color:rgb(98.823529%,80%,38.823529%);stop-opacity:1;"/>
<stop offset="0.77" style="stop-color:rgb(96.078431%,37.254902%,26.666667%);stop-opacity:1;"/>
</linearGradient>
<linearGradient id="linear6" gradientUnits="userSpaceOnUse" x1="660.3" y1="628.14" x2="660.3" y2="692.54" gradientTransform="matrix(0.499559,0,0,0.5,-16.190722,-21.445)">
<stop offset="0" style="stop-color:rgb(87.843137%,87.843137%,87.843137%);stop-opacity:1;"/>
<stop offset="0.31" style="stop-color:rgb(98.823529%,80%,38.823529%);stop-opacity:1;"/>
<stop offset="0.77" style="stop-color:rgb(96.078431%,37.254902%,26.666667%);stop-opacity:1;"/>
</linearGradient>
<mask id="mask12">
  <g filter="url(#alpha)">
<rect x="0" y="0" width="567" height="407" style="fill:rgb(0%,0%,0%);fill-opacity:0.101961;stroke:none;"/>
  </g>
</mask>
<clipPath id="clip13">
  <rect x="0" y="0" width="567" height="407"/>
</clipPath>
<g id="surface41" clip-path="url(#clip13)">
<path style=" stroke:none;fill-rule:nonzero;fill:rgb(0%,0%,0%);fill-opacity:1;" d="M 235.03125 79.175781 L 287.941406 79.175781 L 287.941406 81.230469 L 235.03125 81.230469 Z M 235.03125 79.175781 "/>
</g>
<linearGradient id="linear7" gradientUnits="userSpaceOnUse" x1="766.05" y1="409.23" x2="766.05" y2="340.57" gradientTransform="matrix(0.499559,0,0,0.5,-16.190722,-21.445)">
<stop offset="0" style="stop-color:rgb(50.196078%,50.196078%,50.196078%);stop-opacity:0.25098;"/>
<stop offset="0.54" style="stop-color:rgb(50.196078%,50.196078%,50.196078%);stop-opacity:0.121569;"/>
<stop offset="1" style="stop-color:rgb(50.196078%,50.196078%,50.196078%);stop-opacity:0.101961;"/>
</linearGradient>
<mask id="mask13">
  <g filter="url(#alpha)">
<rect x="0" y="0" width="567" height="407" style="fill:rgb(0%,0%,0%);fill-opacity:0.2;stroke:none;"/>
  </g>
</mask>
<clipPath id="clip14">
  <rect x="0" y="0" width="567" height="407"/>
</clipPath>
<g id="surface44" clip-path="url(#clip14)">
<path style=" stroke:none;fill-rule:nonzero;fill:rgb(0%,0%,0%);fill-opacity:1;" d="M 382.707031 166.003906 C 382.707031 174.566406 376.058594 181.652344 367.519531 182.195312 C 367.1875 182.195312 366.839844 182.230469 366.496094 182.230469 C 359.675781 182.234375 353.582031 177.96875 351.25 171.554688 C 348.917969 165.140625 350.84375 157.949219 356.066406 153.5625 C 361.292969 149.179688 368.699219 148.53125 374.605469 151.949219 C 376.480469 153.039062 378.121094 154.496094 379.429688 156.230469 C 381.558594 159.042969 382.710938 162.476562 382.707031 166.003906 Z M 382.707031 166.003906 "/>
</g>
<mask id="mask14">
  <g filter="url(#alpha)">
<rect x="0" y="0" width="567" height="407" style="fill:rgb(0%,0%,0%);fill-opacity:0.101961;stroke:none;"/>
  </g>
</mask>
<clipPath id="clip15">
  <rect x="0" y="0" width="567" height="407"/>
</clipPath>
<g id="surface47" clip-path="url(#clip15)">
<path style=" stroke:none;fill-rule:nonzero;fill:rgb(0%,0%,0%);fill-opacity:1;" d="M 362.503906 155.710938 C 361.667969 156.070312 360.859375 156.496094 360.085938 156.984375 C 359.574219 157.265625 359.128906 157.664062 358.792969 158.144531 C 358.453125 158.640625 358.441406 159.292969 358.761719 159.800781 C 359.160156 160.339844 359.917969 160.421875 360.585938 160.460938 C 361.289062 160.550781 362.003906 160.476562 362.675781 160.25 C 363.128906 160.027344 363.539062 159.726562 363.894531 159.363281 L 365.289062 158.101562 C 365.789062 157.660156 366.285156 157.054688 366.09375 156.433594 C 365.859375 155.984375 365.414062 155.683594 364.910156 155.636719 C 363.707031 155.402344 362.460938 155.621094 361.410156 156.25 "/>
</g>
<mask id="mask15">
  <g filter="url(#alpha)">
<rect x="0" y="0" width="567" height="407" style="fill:rgb(0%,0%,0%);fill-opacity:0.101961;stroke:none;"/>
  </g>
</mask>
<clipPath id="clip16">
  <rect x="0" y="0" width="567" height="407"/>
</clipPath>
<g id="surface50" clip-path="url(#clip16)">
<path style=" stroke:none;fill-rule:nonzero;fill:rgb(0%,0%,0%);fill-opacity:1;" d="M 357.539062 172.410156 C 357.539062 172.882812 357.15625 173.265625 356.683594 173.265625 C 356.214844 173.265625 355.832031 172.882812 355.832031 172.410156 C 355.832031 171.9375 356.214844 171.554688 356.683594 171.554688 C 357.15625 171.554688 357.539062 171.9375 357.539062 172.410156 Z M 357.539062 172.410156 "/>
</g>
<mask id="mask16">
  <g filter="url(#alpha)">
<rect x="0" y="0" width="567" height="407" style="fill:rgb(0%,0%,0%);fill-opacity:0.101961;stroke:none;"/>
  </g>
</mask>
<clipPath id="clip17">
  <rect x="0" y="0" width="567" height="407"/>
</clipPath>
<g id="surface53" clip-path="url(#clip17)">
<path style=" stroke:none;fill-rule:nonzero;fill:rgb(0%,0%,0%);fill-opacity:1;" d="M 377.15625 167 C 377.15625 168.730469 375.757812 170.128906 374.03125 170.128906 C 372.304688 170.128906 370.902344 168.730469 370.902344 167 C 370.902344 165.269531 372.304688 163.871094 374.03125 163.871094 C 375.757812 163.871094 377.15625 165.269531 377.15625 167 Z M 377.15625 167 "/>
</g>
<mask id="mask17">
  <g filter="url(#alpha)">
<rect x="0" y="0" width="567" height="407" style="fill:rgb(0%,0%,0%);fill-opacity:0.101961;stroke:none;"/>
  </g>
</mask>
<clipPath id="clip18">
  <rect x="0" y="0" width="567" height="407"/>
</clipPath>
<g id="surface56" clip-path="url(#clip18)">
<path style=" stroke:none;fill-rule:nonzero;fill:rgb(0%,0%,0%);fill-opacity:1;" d="M 379.460938 156.230469 C 379.433594 158.507812 377.625 160.367188 375.351562 160.449219 C 373.078125 160.535156 371.136719 158.816406 370.945312 156.542969 C 370.75 154.273438 372.371094 152.25 374.628906 151.949219 C 376.507812 153.039062 378.152344 154.496094 379.460938 156.230469 Z M 379.460938 156.230469 "/>
</g>
<mask id="mask18">
  <g filter="url(#alpha)">
<rect x="0" y="0" width="567" height="407" style="fill:rgb(0%,0%,0%);fill-opacity:0.101961;stroke:none;"/>
  </g>
</mask>
<clipPath id="clip19">
  <rect x="0" y="0" width="567" height="407"/>
</clipPath>
<g id="surface59" clip-path="url(#clip19)">
<path style=" stroke:none;fill-rule:nonzero;fill:rgb(0%,0%,0%);fill-opacity:1;" d="M 379.75 175.34375 C 376.925781 179.371094 372.425781 181.890625 367.519531 182.195312 C 367.519531 181.96875 367.492188 181.746094 367.492188 181.515625 C 367.492188 178.609375 369.128906 175.957031 371.722656 174.652344 C 374.3125 173.347656 377.417969 173.617188 379.75 175.34375 Z M 379.75 175.34375 "/>
</g>
<linearGradient id="linear8" gradientUnits="userSpaceOnUse" x1="331.05" y1="577.85" x2="331.05" y2="529.94" gradientTransform="matrix(0.499559,0,0,0.5,-16.190722,-21.445)">
<stop offset="0" style="stop-color:rgb(50.196078%,50.196078%,50.196078%);stop-opacity:0.25098;"/>
<stop offset="0.54" style="stop-color:rgb(50.196078%,50.196078%,50.196078%);stop-opacity:0.121569;"/>
<stop offset="1" style="stop-color:rgb(50.196078%,50.196078%,50.196078%);stop-opacity:0.101961;"/>
</linearGradient>
<mask id="mask19">
  <g filter="url(#alpha)">
<rect x="0" y="0" width="567" height="407" style="fill:rgb(0%,0%,0%);fill-opacity:0.2;stroke:none;"/>
  </g>
</mask>
<clipPath id="clip20">
  <rect x="0" y="0" width="567" height="407"/>
</clipPath>
<g id="surface62" clip-path="url(#clip20)">
<path style=" stroke:none;fill-rule:nonzero;fill:rgb(0%,0%,0%);fill-opacity:1;" d="M 160.5 255.503906 C 160.496094 261.476562 155.859375 266.421875 149.902344 266.800781 C 149.667969 266.800781 149.402344 266.800781 149.1875 266.800781 C 144.433594 266.800781 140.1875 263.824219 138.5625 259.351562 C 136.9375 254.878906 138.277344 249.867188 141.921875 246.808594 C 145.5625 243.75 150.726562 243.296875 154.84375 245.675781 C 156.15625 246.4375 157.300781 247.460938 158.210938 248.675781 C 159.699219 250.640625 160.503906 253.039062 160.5 255.503906 Z M 160.5 255.503906 "/>
</g>
<mask id="mask20">
  <g filter="url(#alpha)">
<rect x="0" y="0" width="567" height="407" style="fill:rgb(0%,0%,0%);fill-opacity:0.101961;stroke:none;"/>
  </g>
</mask>
<clipPath id="clip21">
  <rect x="0" y="0" width="567" height="407"/>
</clipPath>
<g id="surface65" clip-path="url(#clip21)">
<path style=" stroke:none;fill-rule:nonzero;fill:rgb(0%,0%,0%);fill-opacity:1;" d="M 146.402344 248.324219 C 145.816406 248.574219 145.253906 248.871094 144.71875 249.210938 C 144.359375 249.410156 144.050781 249.6875 143.8125 250.019531 C 143.585938 250.371094 143.585938 250.824219 143.8125 251.175781 C 144.148438 251.507812 144.613281 251.675781 145.082031 251.636719 C 145.574219 251.699219 146.070312 251.648438 146.539062 251.488281 C 146.859375 251.332031 147.148438 251.125 147.394531 250.871094 L 148.363281 249.988281 C 148.703125 249.679688 149.074219 249.261719 148.921875 248.828125 C 148.769531 248.511719 148.453125 248.296875 148.097656 248.269531 C 147.261719 248.105469 146.394531 248.257812 145.667969 248.699219 "/>
</g>
<mask id="mask21">
  <g filter="url(#alpha)">
<rect x="0" y="0" width="567" height="407" style="fill:rgb(0%,0%,0%);fill-opacity:0.101961;stroke:none;"/>
  </g>
</mask>
<clipPath id="clip22">
  <rect x="0" y="0" width="567" height="407"/>
</clipPath>
<g id="surface68" clip-path="url(#clip22)">
<path style=" stroke:none;fill-rule:nonzero;fill:rgb(0%,0%,0%);fill-opacity:1;" d="M 142.933594 259.96875 C 142.933594 260.296875 142.667969 260.566406 142.339844 260.566406 C 142.011719 260.566406 141.746094 260.296875 141.746094 259.96875 C 141.746094 259.640625 142.011719 259.375 142.339844 259.375 C 142.667969 259.375 142.933594 259.640625 142.933594 259.96875 Z M 142.933594 259.96875 "/>
</g>
<mask id="mask22">
  <g filter="url(#alpha)">
<rect x="0" y="0" width="567" height="407" style="fill:rgb(0%,0%,0%);fill-opacity:0.101961;stroke:none;"/>
  </g>
</mask>
<clipPath id="clip23">
  <rect x="0" y="0" width="567" height="407"/>
</clipPath>
<g id="surface71" clip-path="url(#clip23)">
<path style=" stroke:none;fill-rule:nonzero;fill:rgb(0%,0%,0%);fill-opacity:1;" d="M 156.625 256.199219 C 156.625 257.40625 155.648438 258.386719 154.445312 258.386719 C 153.238281 258.386719 152.261719 257.40625 152.261719 256.199219 C 152.261719 254.992188 153.238281 254.015625 154.445312 254.015625 C 155.648438 254.015625 156.625 254.992188 156.625 256.199219 Z M 156.625 256.199219 "/>
</g>
<mask id="mask23">
  <g filter="url(#alpha)">
<rect x="0" y="0" width="567" height="407" style="fill:rgb(0%,0%,0%);fill-opacity:0.101961;stroke:none;"/>
  </g>
</mask>
<clipPath id="clip24">
  <rect x="0" y="0" width="567" height="407"/>
</clipPath>
<g id="surface74" clip-path="url(#clip24)">
<path style=" stroke:none;fill-rule:nonzero;fill:rgb(0%,0%,0%);fill-opacity:1;" d="M 158.214844 248.683594 C 158.203125 250.289062 156.929688 251.601562 155.328125 251.660156 C 153.726562 251.71875 152.359375 250.503906 152.230469 248.902344 C 152.101562 247.304688 153.253906 245.886719 154.84375 245.683594 C 156.15625 246.449219 157.304688 247.46875 158.214844 248.683594 Z M 158.214844 248.683594 "/>
</g>
<mask id="mask24">
  <g filter="url(#alpha)">
<rect x="0" y="0" width="567" height="407" style="fill:rgb(0%,0%,0%);fill-opacity:0.101961;stroke:none;"/>
  </g>
</mask>
<clipPath id="clip25">
  <rect x="0" y="0" width="567" height="407"/>
</clipPath>
<g id="surface77" clip-path="url(#clip25)">
<path style=" stroke:none;fill-rule:nonzero;fill:rgb(0%,0%,0%);fill-opacity:1;" d="M 158.433594 262.019531 C 156.464844 264.828125 153.324219 266.585938 149.902344 266.800781 C 149.902344 266.644531 149.902344 266.484375 149.902344 266.300781 C 149.90625 264.273438 151.046875 262.421875 152.855469 261.511719 C 154.664062 260.601562 156.828125 260.789062 158.457031 261.996094 Z M 158.433594 262.019531 "/>
</g>
</defs>
<g id="surface1">
<path style=" stroke:none;fill-rule:nonzero;fill:rgb(42.352941%,38.823529%,100%);fill-opacity:1;" d="M 495.0625 354.179688 C 490.457031 354.578125 485.820312 354.515625 481.226562 353.996094 C 430.710938 348.40625 361.921875 349.996094 305.84375 384.769531 C 228.292969 432.855469 106.753906 391.691406 53.144531 369.296875 C 12.179688 352.191406 -9.085938 310.296875 3.6875 270.96875 C 3.867188 270.414062 4.050781 269.859375 4.246094 269.304688 C 12.285156 245.933594 28.148438 227.644531 47.796875 217.949219 C 64.921875 209.5 89.925781 191.855469 101.050781 157.949219 C 105.648438 143.949219 111.953125 130.78125 120.140625 119.300781 C 142.066406 88.554688 187.964844 42.769531 266.90625 43.054688 C 280.746094 43.121094 294.480469 45.449219 307.574219 49.945312 C 336.414062 59.78125 362.460938 79.773438 382.324219 107.496094 C 394.996094 125.175781 413.988281 141.609375 441.179688 142.949219 C 478.917969 144.820312 514.929688 162.40625 541.945312 193.699219 C 542.726562 194.601562 543.496094 195.503906 544.265625 196.421875 C 592.367188 253.773438 558.957031 348.589844 495.0625 354.179688 Z M 495.0625 354.179688 "/>
<use xlink:href="#surface5" mask="url(#mask0)"/>
<use xlink:href="#surface8" mask="url(#mask1)"/>
<path style=" stroke:none;fill-rule:nonzero;fill:rgb(100%,100%,100%);fill-opacity:1;" d="M 104.011719 207.070312 C 104.011719 208.476562 102.871094 209.621094 101.464844 209.621094 C 100.058594 209.621094 98.917969 208.476562 98.917969 207.070312 C 98.917969 205.660156 100.058594 204.519531 101.464844 204.519531 C 102.871094 204.519531 104.011719 205.660156 104.011719 207.070312 Z M 104.011719 207.070312 "/>
<path style=" stroke:none;fill-rule:nonzero;fill:rgb(100%,100%,100%);fill-opacity:1;" d="M 285.851562 355.070312 C 285.851562 356.476562 284.710938 357.621094 283.304688 357.621094 C 281.898438 357.621094 280.757812 356.476562 280.757812 355.070312 C 280.757812 353.660156 281.898438 352.519531 283.304688 352.519531 C 284.710938 352.519531 285.851562 353.660156 285.851562 355.070312 Z M 285.851562 355.070312 "/>
<path style=" stroke:none;fill-rule:nonzero;fill:rgb(100%,100%,100%);fill-opacity:1;" d="M 177.324219 368.070312 C 177.324219 368.855469 176.6875 369.496094 175.898438 369.496094 C 175.113281 369.496094 174.476562 368.855469 174.476562 368.070312 C 174.476562 367.28125 175.113281 366.644531 175.898438 366.644531 C 176.6875 366.644531 177.324219 367.28125 177.324219 368.070312 Z M 177.324219 368.070312 "/>
<path style=" stroke:none;fill-rule:nonzero;fill:rgb(100%,100%,100%);fill-opacity:1;" d="M 492.546875 299.070312 C 492.546875 299.855469 491.910156 300.496094 491.121094 300.496094 C 490.335938 300.496094 489.699219 299.855469 489.699219 299.070312 C 489.699219 298.28125 490.335938 297.644531 491.121094 297.644531 C 491.910156 297.644531 492.546875 298.28125 492.546875 299.070312 Z M 492.546875 299.070312 "/>
<path style=" stroke:none;fill-rule:nonzero;fill:rgb(100%,100%,100%);fill-opacity:1;" d="M 411.117188 171.070312 C 411.117188 171.855469 410.480469 172.496094 409.695312 172.496094 C 408.90625 172.496094 408.269531 171.855469 408.269531 171.070312 C 408.269531 170.28125 408.90625 169.644531 409.695312 169.644531 C 410.480469 169.644531 411.117188 170.28125 411.117188 171.070312 Z M 411.117188 171.070312 "/>
<path style=" stroke:none;fill-rule:nonzero;fill:rgb(100%,100%,100%);fill-opacity:1;" d="M 526.515625 233.570312 C 526.515625 234.355469 525.878906 234.996094 525.09375 234.996094 C 524.304688 234.996094 523.667969 234.355469 523.667969 233.570312 C 523.667969 232.78125 524.304688 232.144531 525.09375 232.144531 C 525.878906 232.144531 526.515625 232.78125 526.515625 233.570312 Z M 526.515625 233.570312 "/>
<path style=" stroke:none;fill-rule:nonzero;fill:rgb(100%,100%,100%);fill-opacity:1;" d="M 148.972656 123.570312 C 148.972656 124.976562 147.832031 126.121094 146.425781 126.121094 C 145.019531 126.121094 143.878906 124.976562 143.878906 123.570312 C 143.878906 122.160156 145.019531 121.019531 146.425781 121.019531 C 147.832031 121.019531 148.972656 122.160156 148.972656 123.570312 Z M 148.972656 123.570312 "/>
<path style=" stroke:none;fill-rule:nonzero;fill:rgb(100%,100%,100%);fill-opacity:1;" d="M 76.402344 296.105469 L 74.132812 296.105469 L 74.132812 293.835938 L 73.210938 293.835938 L 73.210938 296.105469 L 70.941406 296.105469 L 70.941406 297.03125 L 73.210938 297.03125 L 73.210938 299.296875 L 74.132812 299.296875 L 74.132812 297.03125 L 76.402344 297.03125 Z M 76.402344 296.105469 "/>
<path style=" stroke:none;fill-rule:nonzero;fill:rgb(100%,100%,100%);fill-opacity:1;" d="M 133.351562 295.105469 L 131.085938 295.105469 L 131.085938 292.835938 L 130.160156 292.835938 L 130.160156 295.105469 L 127.890625 295.105469 L 127.890625 296.03125 L 130.160156 296.03125 L 130.160156 298.296875 L 131.085938 298.296875 L 131.085938 296.03125 L 133.351562 296.03125 Z M 133.351562 295.105469 "/>
<path style=" stroke:none;fill-rule:nonzero;fill:rgb(100%,100%,100%);fill-opacity:1;" d="M 214.78125 341.105469 L 212.511719 341.105469 L 212.511719 338.835938 L 211.589844 338.835938 L 211.589844 341.105469 L 209.320312 341.105469 L 209.320312 342.03125 L 211.589844 342.03125 L 211.589844 344.296875 L 212.511719 344.296875 L 212.511719 342.03125 L 214.78125 342.03125 Z M 214.78125 341.105469 "/>
<path style=" stroke:none;fill-rule:nonzero;fill:rgb(100%,100%,100%);fill-opacity:1;" d="M 328.195312 65.355469 L 327.160156 65.355469 L 327.160156 64.320312 L 326.742188 64.320312 L 326.742188 65.355469 L 325.707031 65.355469 L 325.707031 65.773438 L 326.742188 65.773438 L 326.742188 66.808594 L 327.160156 66.808594 L 327.160156 65.773438 L 328.195312 65.773438 Z M 328.195312 65.355469 "/>
<path style=" stroke:none;fill-rule:nonzero;fill:rgb(100%,100%,100%);fill-opacity:1;" d="M 475.566406 160.355469 L 474.53125 160.355469 L 474.53125 159.320312 L 474.113281 159.320312 L 474.113281 160.355469 L 473.078125 160.355469 L 473.078125 160.773438 L 474.113281 160.773438 L 474.113281 161.808594 L 474.53125 161.808594 L 474.53125 160.773438 L 475.566406 160.773438 Z M 475.566406 160.355469 "/>
<path style=" stroke:none;fill-rule:nonzero;fill:rgb(100%,100%,100%);fill-opacity:1;" d="M 388.640625 222.355469 L 387.609375 222.355469 L 387.609375 221.320312 L 387.1875 221.320312 L 387.1875 222.355469 L 386.15625 222.355469 L 386.15625 222.773438 L 387.1875 222.773438 L 387.1875 223.808594 L 387.609375 223.808594 L 387.609375 222.773438 L 388.640625 222.773438 Z M 388.640625 222.355469 "/>
<path style=" stroke:none;fill-rule:nonzero;fill:rgb(100%,100%,100%);fill-opacity:1;" d="M 34.953125 261.355469 L 33.921875 261.355469 L 33.921875 260.320312 L 33.5 260.320312 L 33.5 261.355469 L 32.464844 261.355469 L 32.464844 261.773438 L 33.5 261.773438 L 33.5 262.808594 L 33.921875 262.808594 L 33.921875 261.773438 L 34.953125 261.773438 Z M 34.953125 261.355469 "/>
<path style=" stroke:none;fill-rule:nonzero;fill:rgb(100%,100%,100%);fill-opacity:1;" d="M 77.417969 346.355469 L 76.382812 346.355469 L 76.382812 345.320312 L 75.964844 345.320312 L 75.964844 346.355469 L 74.929688 346.355469 L 74.929688 346.773438 L 75.964844 346.773438 L 75.964844 347.808594 L 76.382812 347.808594 L 76.382812 346.773438 L 77.417969 346.773438 Z M 77.417969 346.355469 "/>
<path style=" stroke:none;fill-rule:nonzero;fill:rgb(100%,100%,100%);fill-opacity:1;" d="M 210.800781 77.855469 L 209.765625 77.855469 L 209.765625 76.820312 L 209.34375 76.820312 L 209.34375 77.855469 L 208.3125 77.855469 L 208.3125 78.273438 L 209.34375 78.273438 L 209.34375 79.308594 L 209.765625 79.308594 L 209.765625 78.273438 L 210.800781 78.273438 Z M 210.800781 77.855469 "/>
<path style=" stroke:none;fill-rule:nonzero;fill:rgb(100%,100%,100%);fill-opacity:1;" d="M 147.855469 227.355469 L 146.820312 227.355469 L 146.820312 226.320312 L 146.402344 226.320312 L 146.402344 227.355469 L 145.367188 227.355469 L 145.367188 227.773438 L 146.402344 227.773438 L 146.402344 228.808594 L 146.820312 228.808594 L 146.820312 227.773438 L 147.855469 227.773438 Z M 147.855469 227.355469 "/>
<path style=" stroke:none;fill-rule:nonzero;fill:rgb(100%,100%,100%);fill-opacity:1;" d="M 161.34375 184.355469 L 160.308594 184.355469 L 160.308594 183.320312 L 159.890625 183.320312 L 159.890625 184.355469 L 158.855469 184.355469 L 158.855469 184.773438 L 159.890625 184.773438 L 159.890625 185.808594 L 160.308594 185.808594 L 160.308594 184.773438 L 161.34375 184.773438 Z M 161.34375 184.355469 "/>
<use xlink:href="#surface11" mask="url(#mask2)"/>
<use xlink:href="#surface14" mask="url(#mask3)"/>
<use xlink:href="#surface17" mask="url(#mask4)"/>
<use xlink:href="#surface20" mask="url(#mask5)"/>
<path style=" stroke:none;fill-rule:nonzero;fill:rgb(32.54902%,32.941176%,38.039216%);fill-opacity:1;" d="M 218.007812 292.625 L 206.152344 292.625 L 208.269531 278.21875 L 215.890625 278.21875 Z M 218.007812 292.625 "/>
<use xlink:href="#surface23" mask="url(#mask6)"/>
<path style=" stroke:none;fill-rule:nonzero;fill:rgb(32.54902%,32.941176%,38.039216%);fill-opacity:1;" d="M 319.59375 292.625 L 307.742188 292.625 L 309.855469 278.21875 L 317.480469 278.21875 Z M 319.59375 292.625 "/>
<use xlink:href="#surface26" mask="url(#mask7)"/>
<path style=" stroke:none;fill-rule:nonzero;fill:rgb(32.54902%,32.941176%,38.039216%);fill-opacity:1;" d="M 256.523438 292.625 L 244.675781 292.625 L 246.789062 278.21875 L 254.410156 278.21875 Z M 256.523438 292.625 "/>
<use xlink:href="#surface29" mask="url(#mask8)"/>
<path style=" stroke:none;fill-rule:nonzero;fill:rgb(32.54902%,32.941176%,38.039216%);fill-opacity:1;" d="M 280.652344 292.625 L 268.804688 292.625 L 270.917969 278.21875 L 278.535156 278.21875 Z M 280.652344 292.625 "/>
<use xlink:href="#surface32" mask="url(#mask9)"/>
<path style=" stroke:none;fill-rule:nonzero;fill:rgb(32.54902%,32.941176%,38.039216%);fill-opacity:1;" d="M 218.007812 159.175781 L 302.664062 159.175781 L 302.664062 162.566406 L 218.007812 162.566406 Z M 218.007812 159.175781 "/>
<path style=" stroke:none;fill-rule:nonzero;fill:rgb(87.843137%,87.843137%,87.843137%);fill-opacity:1;" d="M 315.746094 105.636719 C 314.84375 104.636719 313.558594 104.066406 312.210938 104.066406 C 310.863281 104.066406 309.578125 104.636719 308.671875 105.636719 C 306.210938 108.265625 303.980469 111.738281 302.039062 115.433594 C 296.273438 126.554688 293.292969 138.90625 293.351562 151.433594 L 293.351562 281.855469 L 330.816406 281.855469 L 330.816406 150.886719 C 330.863281 138.703125 328.027344 126.6875 322.539062 115.816406 C 319.9375 110.734375 317.570312 107.554688 315.746094 105.636719 Z M 315.746094 105.636719 "/>
<path style=" stroke:none;fill-rule:nonzero;fill:rgb(87.843137%,87.843137%,87.843137%);fill-opacity:1;" d="M 208.304688 105.636719 C 209.210938 104.636719 210.496094 104.066406 211.84375 104.066406 C 213.191406 104.066406 214.476562 104.636719 215.378906 105.636719 C 217.847656 108.265625 220.070312 111.738281 222.019531 115.433594 C 227.78125 126.554688 230.761719 138.910156 230.707031 151.433594 L 230.707031 281.855469 L 193.238281 281.855469 L 193.238281 150.886719 C 193.191406 138.703125 196.03125 126.6875 201.515625 115.816406 C 204.113281 110.734375 206.484375 107.554688 208.304688 105.636719 Z M 208.304688 105.636719 "/>
<path style=" stroke:none;fill-rule:nonzero;fill:rgb(32.54902%,32.941176%,38.039216%);fill-opacity:1;" d="M 193.453125 153.664062 L 202.347656 153.710938 L 202.347656 164.679688 L 193.453125 164.679688 Z M 193.453125 153.664062 "/>
<path style=" stroke:none;fill-rule:nonzero;fill:rgb(32.54902%,32.941176%,38.039216%);fill-opacity:1;" d="M 221.8125 153.664062 L 230.707031 153.710938 L 230.707031 164.679688 L 221.8125 164.679688 Z M 221.8125 153.664062 "/>
<path style=" stroke:none;fill-rule:nonzero;fill:rgb(32.54902%,32.941176%,38.039216%);fill-opacity:1;" d="M 293.351562 153.664062 L 302.238281 153.710938 L 302.238281 164.679688 L 293.351562 164.679688 Z M 293.351562 153.664062 "/>
<path style=" stroke:none;fill-rule:nonzero;fill:rgb(32.54902%,32.941176%,38.039216%);fill-opacity:1;" d="M 321.710938 153.664062 L 330.597656 153.710938 L 330.597656 164.679688 L 321.710938 164.679688 Z M 321.710938 153.664062 "/>
<use xlink:href="#surface35" mask="url(#mask10)"/>
<use xlink:href="#surface38" mask="url(#mask11)"/>
<path style=" stroke:none;fill-rule:nonzero;fill:url(#linear3);" d="M 212.242188 324.824219 L 211.917969 324.824219 C 208.734375 324.824219 206.152344 322.242188 206.152344 319.054688 L 206.152344 292.625 L 218.007812 292.625 L 218.007812 319.054688 C 218.007812 322.242188 215.425781 324.824219 212.242188 324.824219 Z M 212.242188 324.824219 "/>
<path style=" stroke:none;fill-rule:nonzero;fill:url(#linear4);" d="M 250.765625 324.824219 L 250.433594 324.824219 C 247.253906 324.820312 244.675781 322.238281 244.675781 319.054688 L 244.675781 292.625 L 256.523438 292.625 L 256.523438 319.054688 C 256.523438 322.238281 253.945312 324.820312 250.765625 324.824219 Z M 250.765625 324.824219 "/>
<path style=" stroke:none;fill-rule:nonzero;fill:url(#linear5);" d="M 274.886719 324.824219 L 274.554688 324.824219 C 271.375 324.816406 268.804688 322.234375 268.804688 319.054688 L 268.804688 292.625 L 280.652344 292.625 L 280.652344 319.054688 C 280.652344 322.242188 278.070312 324.824219 274.886719 324.824219 Z M 274.886719 324.824219 "/>
<path style=" stroke:none;fill-rule:nonzero;fill:url(#linear6);" d="M 313.832031 324.824219 L 313.519531 324.824219 C 311.988281 324.828125 310.519531 324.222656 309.4375 323.136719 C 308.351562 322.054688 307.742188 320.585938 307.742188 319.054688 L 307.742188 292.625 L 319.59375 292.625 L 319.59375 319.054688 C 319.59375 322.238281 317.015625 324.820312 313.832031 324.824219 Z M 313.832031 324.824219 "/>
<path style=" stroke:none;fill-rule:nonzero;fill:rgb(93.333333%,93.333333%,93.333333%);fill-opacity:1;" d="M 266.730469 3.375 C 265.476562 1.882812 263.628906 1.019531 261.683594 1.019531 C 259.734375 1.019531 257.886719 1.882812 256.632812 3.375 C 253.136719 7.316406 249.941406 12.519531 247.140625 18.058594 C 238.917969 34.480469 234.742188 53.121094 234.742188 72.019531 L 234.742188 281.324219 L 288.195312 281.324219 L 288.195312 71.179688 C 288.195312 52.816406 284.199219 34.679688 276.386719 18.628906 C 272.714844 11.015625 269.332031 6.28125 266.730469 3.375 Z M 266.730469 3.375 "/>
<path style=" stroke:none;fill-rule:nonzero;fill:rgb(32.54902%,32.941176%,38.039216%);fill-opacity:1;" d="M 252.671875 26.625 L 269.578125 26.625 C 272.613281 26.625 275.074219 29.085938 275.074219 32.125 L 275.074219 33.921875 C 275.074219 36.957031 272.613281 39.421875 269.578125 39.421875 L 252.671875 39.421875 C 249.636719 39.421875 247.175781 36.957031 247.175781 33.921875 L 247.175781 32.125 C 247.175781 29.085938 249.636719 26.625 252.671875 26.625 Z M 252.671875 26.625 "/>
<use xlink:href="#surface41" mask="url(#mask12)"/>
<path style=" stroke:none;fill-rule:nonzero;fill:url(#linear7);" d="M 380.183594 155.664062 C 378.796875 153.839844 377.0625 152.3125 375.078125 151.164062 C 368.835938 147.5625 361.007812 148.25 355.488281 152.886719 C 349.964844 157.523438 347.933594 165.121094 350.394531 171.902344 C 352.859375 178.679688 359.292969 183.195312 366.5 183.199219 C 366.867188 183.199219 367.230469 183.199219 367.585938 183.160156 C 373.882812 182.761719 379.453125 178.933594 382.085938 173.195312 C 384.71875 167.457031 383.992188 160.734375 380.191406 155.695312 Z M 380.183594 155.664062 "/>
<use xlink:href="#surface44" mask="url(#mask13)"/>
<use xlink:href="#surface47" mask="url(#mask14)"/>
<use xlink:href="#surface50" mask="url(#mask15)"/>
<use xlink:href="#surface53" mask="url(#mask16)"/>
<use xlink:href="#surface56" mask="url(#mask17)"/>
<use xlink:href="#surface59" mask="url(#mask18)"/>
<path style=" stroke:none;fill-rule:nonzero;fill:url(#linear8);" d="M 158.738281 248.289062 C 157.773438 247.011719 156.558594 245.9375 155.171875 245.128906 C 150.808594 242.566406 145.308594 243.023438 141.421875 246.265625 C 137.539062 249.511719 136.109375 254.847656 137.847656 259.605469 C 139.585938 264.359375 144.121094 267.511719 149.179688 267.480469 C 149.433594 267.480469 149.679688 267.480469 149.9375 267.453125 C 154.324219 267.160156 158.195312 264.488281 160.027344 260.488281 C 161.863281 256.492188 161.363281 251.8125 158.730469 248.289062 Z M 158.738281 248.289062 "/>
<use xlink:href="#surface62" mask="url(#mask19)"/>
<use xlink:href="#surface65" mask="url(#mask20)"/>
<use xlink:href="#surface68" mask="url(#mask21)"/>
<use xlink:href="#surface71" mask="url(#mask22)"/>
<use xlink:href="#surface74" mask="url(#mask23)"/>
<use xlink:href="#surface77" mask="url(#mask24)"/>
<path style=" stroke:none;fill-rule:nonzero;fill:rgb(100%,100%,100%);fill-opacity:1;" d="M 477.949219 214.113281 C 477.949219 214.625 477.535156 215.035156 477.03125 215.035156 C 476.523438 215.035156 476.109375 214.625 476.109375 214.113281 C 476.109375 213.605469 476.523438 213.195312 477.03125 213.195312 C 477.535156 213.195312 477.949219 213.605469 477.949219 214.113281 Z M 477.949219 214.113281 "/>
</g>
</svg>
